# xmcd
#
# Track frame offsets: 
#        150
#        9363
#        18688
#        28695
#        38353
#        48303
#        58700
#        71880
#        85380
#        97350
#        108308
#        120210
#        132140
#        143498
#        154918
#        167073
#        176830
#        190493
#        204048
#        216210
#        229918
#        243880
#
# Disc length: 3447 seconds
#
# Revision: 3
# Processed by: cddbd v1.5.2PL0 Copyright (c) Steve Scherf et al.
# Submitted via: ExactAudioCopy v0.95b3
#
DISCID=2c0d7516
DTITLE=Loretta Lynn - All Time Greatest Hits: Loretta Lynn
DYEAR=2002
DGENRE=Country
TTITLE0=Wine Women And Song
TTITLE1=Happy Birthday
TTITLE2=You Ain't Woman Enough (To Take My Man)
TTITLE3=Don't Come Home A drinkin' (With Lovin' On Your Mind)
TTITLE4=Fist City
TTITLE5=You've Just Stepped In (From Stepping Out On Me)
TTITLE6=Woman Of The World (Leave My World Alone)
TTITLE7=Coal Miner's Daughter
TTITLE8=After The Fire Is Gone
TTITLE9=Lead Me On
TTITLE10=One's On The Way
TTITLE11=Rated "X"
TTITLE12=Love Is The Foundation
TTITLE13=Louisiana Woman, Mississippi Man
TTITLE14=As Soon As I Hang Up The Phone
TTITLE15=Trouble In Paradise
TTITLE16=When The Tingle Becomes A Chill
TTITLE17=Feelin's
TTITLE18=Out Of My Head And Back In My Bed
TTITLE19=Somebody Somewhere (Don't Know What He's Missin' Tonight
TTITLE20=She's Got You
TTITLE21=I Can't Feel You Anymore
EXTD=MCA Records
EXTT0=1964
EXTT1=1964
EXTT2=1965
EXTT3=1966
EXTT4=1968
EXTT5=1968
EXTT6=1968
EXTT7=1969
EXTT8=1970
EXTT9=1970
EXTT10=1971
EXTT11=1971
EXTT12=1973
EXTT13=1973
EXTT14=1973
EXTT15=1974
EXTT16=1974
EXTT17=1975
EXTT18=1976
EXTT19=1976
EXTT20=1976
EXTT21=1978
PLAYORDER=
